<svg xmlns="http://www.w3.org/2000/svg" viewBox="0 0 205.68 49.7"><title>Asset 1</title><path d="M42.64,13.23H41.23v-10H38.54V1.92h6.78V3.21H42.64Z" style="fill:#003974"/><path d="M53.26,6.48V1.92h1.41V13.23H53.26V7.8H47.87v5.43H46.46V1.92h1.41V6.48Z" style="fill:#003974"/><path d="M56.86,1.92h6.08V3.21H58.27V6.37H62.8v1.3H58.27v4.27h4.67v1.29H56.86Z" style="fill:#003974"/><path d="M76,6.48V1.92H77.4V13.23H76V7.8H70.6v5.43H69.19V1.92H70.6V6.48Z" style="fill:#003974"/><path d="M90.65,7.57a5.93,5.93,0,0,1-11.85,0,5.93,5.93,0,0,1,11.85,0Zm-1.41,0a4.52,4.52,0,1,0-9,0,4.52,4.52,0,1,0,9,0Z" style="fill:#003974"/><path d="M92,1.38l8.49,8.9V1.92h1.41V13.7L93.44,4.8v8.43H92Z" style="fill:#003974"/><path d="M114.4,7.53V8A5.25,5.25,0,0,1,109,13.47a5.9,5.9,0,0,1,.15-11.79,5.91,5.91,0,0,1,4.61,2.19l-1,.94a4.46,4.46,0,0,0-8.07,2.75,4.62,4.62,0,0,0,4.39,4.62,3.8,3.8,0,0,0,3.71-3.36h-2.93V7.53Z" style="fill:#003974"/><path d="M126.64,1.92h1.85L123.4,7l5.18,6.23h-1.91L122.41,8l-.57.54v4.72h-1.41V1.92h1.41v4.9Z" style="fill:#003974"/><path d="M140.64,7.57a5.93,5.93,0,0,1-11.85,0,5.93,5.93,0,0,1,11.85,0Zm-1.41,0a4.52,4.52,0,1,0-9,0,4.52,4.52,0,1,0,9,0Z" style="fill:#003974"/><path d="M142,1.38l8.49,8.9V1.92h1.41V13.7l-8.49-8.9v8.43H142Z" style="fill:#003974"/><path d="M164.39,7.53V8A5.25,5.25,0,0,1,159,13.47a5.9,5.9,0,0,1,.14-11.79,5.91,5.91,0,0,1,4.61,2.19l-1,.94a4.46,4.46,0,0,0-8.07,2.75,4.62,4.62,0,0,0,4.39,4.62,3.8,3.8,0,0,0,3.71-3.36H159.9V7.53Z" style="fill:#003974"/><path d="M40.81,19.92v6.67c0,1.85.55,3.56,2.73,3.56s2.73-1.71,2.73-3.56V19.92h1.41v7.15c0,2.49-1.55,4.4-4.14,4.4s-4.14-1.91-4.14-4.4V19.92Z" style="fill:#003974"/><path d="M49.64,19.38l8.5,8.9V19.92h1.41V31.7l-8.5-8.9v8.43H49.64Z" style="fill:#003974"/><path d="M63.07,31.23H61.66V19.92h1.41Z" style="fill:#003974"/><path d="M69.07,28.29l3.36-8.37H74L69.07,31.83,64.15,19.92H65.7Z" style="fill:#003974"/><path d="M75.09,19.92h6.08v1.29H76.5v3.16H81v1.3H76.5v4.27h4.67v1.29H75.09Z" style="fill:#003974"/><path d="M90.09,31.23H88.38l-3.33-4.78h-.58v4.78H83.06V19.92h1.71a6,6,0,0,1,3,.52,3.13,3.13,0,0,1,1.49,2.7,3.09,3.09,0,0,1-2.72,3.17Zm-5.62-5.95h.45c1.44,0,3-.28,3-2.08s-1.68-2-3.08-2h-.37Z" style="fill:#003974"/><path d="M96.38,22.06A1.94,1.94,0,0,0,94.56,21a1.78,1.78,0,0,0-1.89,1.6c0,.89.87,1.35,1.58,1.63l.81.31c1.6.63,2.8,1.52,2.8,3.41a3.48,3.48,0,0,1-3.61,3.52,3.53,3.53,0,0,1-3.5-3.16l1.43-.3A2.14,2.14,0,1,0,96.46,28c0-1.22-1-1.74-2-2.15l-.78-.33c-1.29-.55-2.46-1.29-2.46-2.87a3.08,3.08,0,0,1,3.34-2.92,3.23,3.23,0,0,1,2.91,1.71Z" style="fill:#003974"/><path d="M100.93,31.23H99.52V19.92h1.41Z" style="fill:#003974"/><path d="M106.24,31.23h-1.41v-10h-2.69V19.92h6.78v1.29h-2.68Z" style="fill:#003974"/><path d="M109,19.92h1.62l2.78,4.83,2.77-4.83h1.62l-3.69,6.39v4.92H112.7V26.31Z" style="fill:#003974"/><path d="M134.47,25.57a5.93,5.93,0,0,1-11.85,0,5.93,5.93,0,0,1,11.85,0Zm-1.41,0a4.52,4.52,0,1,0-9,0,4.52,4.52,0,1,0,9,0Z" style="fill:#003974"/><path d="M137.39,21.21v3.18h3.92v1.29h-3.92v5.55H136V19.92h5.48v1.29Z" style="fill:#003974"/><path d="M152.76,22.06A1.93,1.93,0,0,0,151,21a1.78,1.78,0,0,0-1.89,1.6c0,.89.87,1.35,1.57,1.63l.81.31c1.61.63,2.81,1.52,2.81,3.41a3.57,3.57,0,0,1-7.11.36l1.42-.3a2.14,2.14,0,1,0,4.28-.06c0-1.22-1-1.74-2-2.15l-.78-.33c-1.29-.55-2.46-1.29-2.46-2.87A3.08,3.08,0,0,1,151,19.68a3.22,3.22,0,0,1,2.91,1.71Z" style="fill:#003974"/><path d="M164.18,22.08a4.5,4.5,0,0,0-7.46,3.51A4.45,4.45,0,0,0,164.18,29v1.67a6.11,6.11,0,0,1-3,.79,5.84,5.84,0,0,1-5.89-5.83,5.94,5.94,0,0,1,6-6,5.49,5.49,0,0,1,2.85.76Z" style="fill:#003974"/><path d="M167.38,31.23H166V19.92h1.41Z" style="fill:#003974"/><path d="M169.64,19.92h6.08v1.29h-4.67v3.16h4.53v1.3h-4.53v4.27h4.67v1.29h-6.08Z" style="fill:#003974"/><path d="M177.48,19.38l8.49,8.9V19.92h1.41V31.7l-8.49-8.9v8.43h-1.41Z" style="fill:#003974"/><path d="M197.77,22.08a4.49,4.49,0,0,0-7.45,3.51A4.45,4.45,0,0,0,197.77,29v1.67a6.08,6.08,0,0,1-3,.79,5.85,5.85,0,0,1-5.89-5.83,5.94,5.94,0,0,1,6-6,5.45,5.45,0,0,1,2.84.76Z" style="fill:#003974"/><path d="M199.6,19.92h6.08v1.29H201v3.16h4.54v1.3H201v4.27h4.67v1.29H199.6Z" style="fill:#003974"/><path d="M41.2,46.4l-1.29,2.83H38.39l5.4-11.79,5.4,11.79H47.68L46.39,46.4Zm2.59-5.87-2,4.57h4Z" style="fill:#003974"/><path d="M50.15,37.38l8.49,8.9V37.92h1.42V49.7l-8.5-8.9v8.43H50.15Z" style="fill:#003974"/><path d="M62.1,37.92h2.34c3.46,0,6.34,1.83,6.34,5.6S68,49.23,64.39,49.23H62.1Zm1.41,10H64c2.88,0,5.37-1.08,5.37-4.37S66.88,39.21,64,39.21h-.49Z" style="fill:#003974"/><path d="M79.87,49.23h-1.4v-10H75.78V37.92h6.78v1.29H79.87Z" style="fill:#003974"/><path d="M83.82,37.92H89.9v1.29H85.23v3.16h4.53v1.3H85.23v4.27H89.9v1.29H83.82Z" style="fill:#003974"/><path d="M100,40.08A4.59,4.59,0,0,0,97,39a4.61,4.61,0,1,0,3,8v1.67a6.15,6.15,0,0,1-3,.79,5.85,5.85,0,0,1-5.89-5.84,5.94,5.94,0,0,1,6-6,5.55,5.55,0,0,1,2.86.76Z" style="fill:#003974"/><path d="M108.53,42.48V37.92h1.41V49.23h-1.41V43.8h-5.38v5.43h-1.41V37.92h1.41v4.56Z" style="fill:#003974"/><path d="M112,37.38l8.49,8.9V37.92h1.41V49.7l-8.49-8.9v8.43H112Z" style="fill:#003974"/><path d="M135.12,43.57a5.93,5.93,0,0,1-11.85,0,5.93,5.93,0,0,1,11.85,0Zm-1.41,0a4.52,4.52,0,1,0-9,0,4.52,4.52,0,1,0,9,0Z" style="fill:#003974"/><path d="M138.05,47.94h3.43v1.29h-4.84V37.92h1.41Z" style="fill:#003974"/><path d="M153.62,43.57a5.93,5.93,0,0,1-11.85,0,5.93,5.93,0,0,1,11.85,0Zm-1.41,0a4.52,4.52,0,1,0-9,0,4.52,4.52,0,1,0,9,0Z" style="fill:#003974"/><path d="M165.44,43.53V44a5.25,5.25,0,0,1-5.35,5.49,5.9,5.9,0,0,1,.14-11.79,5.91,5.91,0,0,1,4.61,2.19l-1,.94a4.46,4.46,0,0,0-8.07,2.75,4.62,4.62,0,0,0,4.39,4.62,3.8,3.8,0,0,0,3.71-3.36H161V43.53Z" style="fill:#003974"/><path d="M165.82,37.92h1.62l2.77,4.83L173,37.92h1.62l-3.69,6.39v4.92h-1.41V44.31Z" style="fill:#003974"/><path d="M22.67,10.14A2.07,2.07,0,0,0,23,9.33H9a4.36,4.36,0,0,0,.32.81Z" style="fill:#a78337"/><path d="M21.85,11.33a3.45,3.45,0,0,0,.53-.7H9.53a2.35,2.35,0,0,0,.47.7Z" style="fill:#a78337"/><path d="M20.84,12.41a2.08,2.08,0,0,0,.58-.52h-11s.26.29.52.52Z" style="fill:#a78337"/><path d="M19.56,13.43a3.14,3.14,0,0,0,.67-.41H11.65s0,.06.61.41Z" style="fill:#a78337"/><path d="M13.25,14.07a5.72,5.72,0,0,0,2.67.52,7.55,7.55,0,0,0,2.91-.52Z" style="fill:#a78337"/><path d="M13.1,15.26a3.66,3.66,0,0,1,1.72.55A5.88,5.88,0,0,1,15.9,17.2a3.6,3.6,0,0,1,1-1.27,4.67,4.67,0,0,1,1.6-.67H29.56l2.18,3.23H21.79a4.24,4.24,0,0,0-1.74.64,3.53,3.53,0,0,0-1,.87,1.24,1.24,0,0,1-.21.4.79.79,0,0,1-.34.32c-.15.06-.12,0-.12,0H13.25a.72.72,0,0,1-.32-.26c-.12-.18,0-.12-.14-.26a3.16,3.16,0,0,0-1.08-1.05,3.82,3.82,0,0,0-1.6-.58H0l2.2-3.34Z" style="fill:#003974"/><path d="M5.28,19.82V36.33a7.84,7.84,0,0,0,1.28,3.43,8.51,8.51,0,0,0,3,2.88L11,40.46A7.62,7.62,0,0,1,8.8,38.34a5.27,5.27,0,0,1-.9-2.59V19.82Z" style="fill:#003974"/><path d="M24,19.76V35.69a7.29,7.29,0,0,1-1,2.73,9.63,9.63,0,0,1-2,2.1l1.34,2.15a14,14,0,0,0,3-3.06,10.8,10.8,0,0,0,1.22-3.92V19.76Z" style="fill:#003974"/><path d="M1.13,19.82V36.39A13,13,0,0,0,2.9,41.62a16,16,0,0,0,4.51,4.54L8.77,44a10.23,10.23,0,0,1-3.34-3.26,9.43,9.43,0,0,1-1.6-4.39V19.82Z" style="fill:#003974"/><path d="M13.1,21.57V39.06s-.06.06-.08.32a.82.82,0,0,1-.21.44L7,49.5H24.88L19,39.61l-.17-.44-.06-.46V21.6H16.62V39.36a1.34,1.34,0,0,0,.09.46c.05.2.17.52.17.52l3.6,5.93H11.36l3.55-5.9a2.91,2.91,0,0,0,.2-.49,4.28,4.28,0,0,0,.08-.52V21.57Z" style="fill:#a78337"/><path d="M28,19.76V36a9.41,9.41,0,0,1-1.56,4.51A10.91,10.91,0,0,1,23.16,44l1.31,2.2a15.89,15.89,0,0,0,4.36-4.36A14,14,0,0,0,30.69,36V19.76Z" style="fill:#003974"/><path d="M8.86,8.86S8,4,11.56,1.51A6.68,6.68,0,0,1,15.83,0a6.94,6.94,0,0,1,4.45,1.48A7.26,7.26,0,0,1,23,8.86Z" style="fill:#a78337"/></svg>